<?xml version="1.0" standalone="no"?>
<!DOCTYPE svg PUBLIC "-//W3C//DTD SVG 20010904//EN"
 "http://www.w3.org/TR/2001/REC-SVG-20010904/DTD/svg10.dtd">
<svg version="1.0" xmlns="http://www.w3.org/2000/svg"
 width="260.000000pt" height="260.000000pt" viewBox="0 0 260.000000 260.000000"
 preserveAspectRatio="xMidYMid meet">
<metadata>
Created by potrace 1.14, written by Peter Selinger 2001-2017
</metadata>
<g transform="translate(0.000000,260.000000) scale(0.100000,-0.100000)"
fill="#000000" stroke="none">
<path d="M267 1998 c-16 -12 -17 -53 -15 -668 l3 -655 330 0 c297 0 336 2 390
19 70 22 127 50 172 84 48 36 153 183 153 215 0 7 7 25 15 40 20 40 45 201 45
295 0 97 -25 270 -46 320 -60 139 -118 216 -209 277 -104 69 -149 76 -505 82
-254 4 -318 2 -333 -9z m613 -243 c76 -26 138 -90 170 -175 23 -61 25 -78 25
-250 0 -168 -2 -190 -22 -243 -59 -150 -119 -184 -346 -194 -74 -3 -146 -3
-160 1 l-27 6 0 434 c0 238 3 436 8 440 4 4 72 6 152 4 107 -3 159 -9 200 -23z"/>
<path d="M1607 1998 c-16 -12 -17 -61 -15 -668 l3 -655 128 -3 c70 -1 128 -1
129 0 1 2 5 134 8 293 l5 290 270 5 270 5 3 106 c3 104 2 107 -20 113 -13 3
-136 6 -274 6 -193 0 -253 3 -255 13 -2 6 -2 71 1 142 l5 130 310 5 310 5 3
104 c2 77 -1 107 -10 113 -7 4 -202 8 -434 8 -321 0 -424 -3 -437 -12z"/>
</g>
</svg>
